<svg width="61" height="61" viewBox="0 0 61 61" fill="none" xmlns="http://www.w3.org/2000/svg">
<g clip-path="url(#clip0)">
<rect width="59.7766" height="59.7766" transform="translate(0.837646 0.700531)" fill="url(#paint0_linear)"/>
<rect width="59.7766" height="59.7766" transform="translate(0.837646 0.700531)" fill="url(#paint1_linear)"/>
<path d="M51.7413 30.5889C51.9281 32.6437 50.527 34.3249 48.5656 34.3249H12.8864C10.925 34.3249 9.52399 32.6437 9.71079 30.5889L11.6722 9.85384C11.859 7.79902 13.6336 6.1178 15.5951 6.1178H45.857C47.8184 6.1178 49.593 7.79902 49.7798 9.85384L51.7413 30.5889Z" fill="#B4D7EE"/>
<path d="M9.15039 29.1878H14.7544V36.6599H9.15039V29.1878Z" fill="#3E4347"/>
<path d="M46.6975 29.1878H52.3016V36.6599H46.6975V29.1878Z" fill="#3E4347"/>
<path d="M14.4744 48.2416H20.0784V57.6751H14.4744V48.2416Z" fill="#3E4347"/>
<path d="M41.3738 48.2416H46.9778V57.6751H41.3738V48.2416Z" fill="#3E4347"/>
<path d="M39.5058 24.0508C39.2256 26.4792 37.2642 28.534 35.3028 28.534H26.1495C24.0946 28.534 22.2266 26.5726 21.9464 24.0508L20.2652 10.4142C19.985 7.98581 21.386 5.93098 23.3474 5.93098H38.0114C40.0662 5.93098 41.4672 7.98581 41.0936 10.4142L39.5058 24.0508Z" fill="#428BC1"/>
<path d="M22.3198 55.7137C22.133 55.2467 21.5726 54.7797 21.1056 54.7797H13.6336C13.0731 54.7797 12.6061 55.1533 12.4193 55.7137L11.0183 59.5432C10.8315 60.0102 11.1117 60.4772 11.6721 60.4772H22.8803C23.4407 60.4772 23.7209 60.1036 23.5341 59.5432L22.3198 55.7137Z" fill="#94989B"/>
<path d="M50.4335 59.5432L49.1259 55.7137C48.9391 55.2467 48.3787 54.7797 47.9116 54.7797H40.4396C39.8792 54.7797 39.4122 55.1533 39.2254 55.7137L37.9177 59.5432C37.7309 60.0102 38.0111 60.4772 38.5715 60.4772H49.7797C50.2467 60.4772 50.5269 60.1036 50.4335 59.5432Z" fill="#94989B"/>
<path d="M43.9889 6.30459C43.9889 8.35941 42.4011 10.0406 40.4397 10.0406H20.9189C18.9574 10.0406 17.3696 8.35941 17.3696 6.30459V4.43657C17.3696 2.38175 18.9574 0.700531 20.9189 0.700531H40.4397C42.4011 0.700531 43.9889 2.38175 43.9889 4.43657V6.30459Z" fill="#29ABE2"/>
<path d="M15.3149 27.9736L15.0347 26.0122C14.8479 24.9848 14.0072 24.1442 13.0732 24.1442H10.5514C9.61739 24.1442 8.77679 24.9848 8.58998 26.0122L8.30978 27.9736C8.12298 29.001 8.77679 29.8417 9.7108 29.8417H13.9138C14.8479 29.8417 15.5017 29.001 15.3149 27.9736Z" fill="#29ABE2"/>
<path d="M52.9555 27.9736L52.6753 26.0122C52.4885 24.9848 51.6479 24.1442 50.7139 24.1442H48.192C47.258 24.1442 46.4174 24.9848 46.2306 26.0122L45.9504 27.9736C45.7636 29.001 46.4174 29.8417 47.3514 29.8417H51.5545C52.4885 29.8417 53.0489 29.001 52.9555 27.9736Z" fill="#29ABE2"/>
<path d="M48.9392 34.3249H12.5128C9.61734 34.3249 7.84272 37.1269 8.40312 40.5828L8.77673 43.0112C9.33713 46.467 12.2326 49.2691 15.0346 49.2691H46.2305C49.126 49.2691 51.928 46.467 52.4884 43.0112L52.9554 40.5828C53.6092 37.2203 51.7412 34.3249 48.9392 34.3249Z" fill="#29ABE2"/>
</g>
<defs>
<linearGradient id="paint0_linear" x1="29.7473" y1="-10.6148" x2="29.7473" y2="-52.2752" gradientUnits="userSpaceOnUse">
<stop stop-color="#FFAC33"/>
<stop offset="1" stop-color="white" stop-opacity="0"/>
</linearGradient>
<linearGradient id="paint1_linear" x1="29.8883" y1="0" x2="29.8883" y2="59.7766" gradientUnits="userSpaceOnUse">
<stop stop-color="white"/>
<stop offset="1" stop-color="white" stop-opacity="0"/>
</linearGradient>
<clipPath id="clip0">
<rect width="59.7766" height="59.7766" fill="white" transform="translate(0.837646 0.700531)"/>
</clipPath>
</defs>
</svg>
