<svg width="61" height="61" viewBox="0 0 61 61" fill="none" xmlns="http://www.w3.org/2000/svg">
<g clip-path="url(#clip0)">
<rect width="59.7766" height="59.7766" transform="translate(0.837646 0.390869)" fill="url(#paint0_linear)"/>
<path d="M51.7413 30.2792C51.9281 32.334 50.527 34.0152 48.5656 34.0152H12.8864C10.925 34.0152 9.52399 32.334 9.71079 30.2792L11.6722 9.54417C11.859 7.48935 13.6336 5.80813 15.5951 5.80813H45.857C47.8184 5.80813 49.593 7.48935 49.7798 9.54417L51.7413 30.2792Z" fill="#B4D7EE"/>
<path d="M9.15039 28.8782H14.7544V36.3503H9.15039V28.8782Z" fill="#3E4347"/>
<path d="M46.6975 28.8782H52.3016V36.3503H46.6975V28.8782Z" fill="#3E4347"/>
<path d="M14.4744 47.932H20.0784V57.3655H14.4744V47.932Z" fill="#3E4347"/>
<path d="M41.3738 47.932H46.9778V57.3655H41.3738V47.932Z" fill="#3E4347"/>
<path d="M39.5058 23.7411C39.2256 26.1695 37.2642 28.2244 35.3028 28.2244H26.1495C24.0946 28.2244 22.2266 26.2629 21.9464 23.7411L20.2652 10.1046C19.985 7.67614 21.386 5.62132 23.3474 5.62132H38.0114C40.0662 5.62132 41.4672 7.67614 41.0936 10.1046L39.5058 23.7411Z" fill="#428BC1"/>
<path d="M22.3198 55.4041C22.133 54.9371 21.5726 54.4701 21.1056 54.4701H13.6336C13.0731 54.4701 12.6061 54.8437 12.4193 55.4041L11.0183 59.2335C10.8315 59.7005 11.1117 60.1675 11.6721 60.1675H22.8803C23.4407 60.1675 23.7209 59.7939 23.5341 59.2335L22.3198 55.4041Z" fill="#94989B"/>
<path d="M50.4335 59.2335L49.1259 55.4041C48.9391 54.9371 48.3787 54.4701 47.9116 54.4701H40.4396C39.8792 54.4701 39.4122 54.8437 39.2254 55.4041L37.9177 59.2335C37.7309 59.7005 38.0111 60.1675 38.5715 60.1675H49.7797C50.2467 60.1675 50.5269 59.7939 50.4335 59.2335Z" fill="#94989B"/>
<path d="M43.9889 5.99493C43.9889 8.04975 42.4011 9.73097 40.4397 9.73097H20.9189C18.9574 9.73097 17.3696 8.04975 17.3696 5.99493V4.12691C17.3696 2.07209 18.9574 0.390869 20.9189 0.390869H40.4397C42.4011 0.390869 43.9889 2.07209 43.9889 4.12691V5.99493Z" fill="#29ABE2"/>
<path d="M15.3149 27.664L15.0347 25.7025C14.8479 24.6751 14.0072 23.8345 13.0732 23.8345H10.5514C9.61739 23.8345 8.77679 24.6751 8.58998 25.7025L8.30978 27.664C8.12298 28.6914 8.77679 29.532 9.7108 29.532H13.9138C14.8479 29.532 15.5017 28.6914 15.3149 27.664Z" fill="#29ABE2"/>
<path d="M52.9555 27.664L52.6753 25.7025C52.4885 24.6751 51.6479 23.8345 50.7139 23.8345H48.192C47.258 23.8345 46.4174 24.6751 46.2306 25.7025L45.9504 27.664C45.7636 28.6914 46.4174 29.532 47.3514 29.532H51.5545C52.4885 29.532 53.0489 28.6914 52.9555 27.664Z" fill="#29ABE2"/>
<path d="M48.9392 34.0152H12.5128C9.61734 34.0152 7.84272 36.8173 8.40312 40.2731L8.77673 42.7015C9.33713 46.1574 12.2326 48.9594 15.0346 48.9594H46.2305C49.126 48.9594 51.928 46.1574 52.4884 42.7015L52.9554 40.2731C53.6092 36.9107 51.7412 34.0152 48.9392 34.0152Z" fill="#29ABE2"/>
</g>
<defs>
<linearGradient id="paint0_linear" x1="29.8883" y1="0" x2="29.8883" y2="59.7766" gradientUnits="userSpaceOnUse">
<stop stop-color="white"/>
<stop offset="1" stop-color="white" stop-opacity="0"/>
</linearGradient>
<clipPath id="clip0">
<rect width="59.7766" height="59.7766" fill="white" transform="translate(0.837646 0.390869)"/>
</clipPath>
</defs>
</svg>
